<?xml version="1.0" encoding="UTF-8"?>
<svg xmlns="http://www.w3.org/2000/svg" version="1.1" viewBox="0 0 443 230">
  <defs>
    <style>
      .cls-1 {
        stroke: #000;
        stroke-miterlimit: 10;
        stroke-width: .7px;
      }
    </style>
  </defs>
  <!-- Generator: Adobe Illustrator 28.7.1, SVG Export Plug-In . SVG Version: 1.2.0 Build 142)  -->
  <g>
    <g id="Layer_1">
      <g>
        <path d="M30.3114129,31.6148896c-2.1887678,20.5935772-4.3775356,41.1871545-6.5663034,61.7807317-.128966,1.2134094,1.5832299,1.2206097,1.964279.2658396,6.5470607-16.4045465,13.0941214-32.8090931,19.6411822-49.2136396l5.5588251-13.9283886-1.964279-.2658396c-.4687551,15.3314611.1563286,31.1437589,6.1680342,45.4785555,2.6416886,6.2990556,6.252152,12.2107582,10.9898863,17.1573073,4.6595653,4.8649348,10.5555,8.9136476,17.5370266,8.8738663,13.490844-.0768719,24.1294953-12.3560968,29.6228347-23.5067366,5.8645336-11.9041073,7.7186271-25.7503302,5.5551754-38.8197683-1.0054996-6.0742353-3.2716348-12.6318619-8.5174187-16.3315213-4.1354541-2.9165844-10.4796878-3.5080917-14.7030967-.4424252-1.0054026.7297965-1.8220797,1.6259175-2.4880171,2.6727299-.6928854,1.089173,1.0372793,2.0935444,1.7269414,1.0094383,2.7799273-4.3698737,9.0639976-4.5309078,13.2557732-2.2578623,5.2122634,2.8264183,7.4884877,9.0664464,8.5585135,14.5516928,2.3549964,12.0723587.8626452,25.2221982-4.1126775,36.4636596-4.7754359,10.7898283-13.8618968,22.5620916-26.2885502,24.4632217-6.7615369,1.0344347-12.700329-2.2247025-17.4368652-6.7896906-4.5472974-4.3826031-8.1044657-9.6842579-10.7897251-15.3835007-6.9046136-14.6544757-7.5645358-31.2205533-7.0778348-47.1389665.036948-1.2084481-1.5722745-1.2480601-1.964279-.2658396-6.5470607,16.4045465-13.0941214,32.8090931-19.6411822,49.2136396l-5.5588251,13.9283886,1.964279.2658396c2.1887678-20.5935772,4.3775356-41.1871545,6.5663034-61.7807317.1358689-1.2783571-1.8651481-1.2687887-2,0h0Z"/>
        <path d="M103.103202,136.5939171c-2.4795532-7.6999512-6.4107666-15.4090576-13.2268677-20.1271362-6.0657349-4.1987305-14.8410645-5.8553467-21.3927612-1.7520752-5.5366211,3.4675293-9.0483398,10.8988647-6.5421143,17.2406006,2.4279175,6.1436768,8.9959717,8.803772,14.1400757,12.1932983,2.8881836,1.9030762,5.555603,4.2473145,6.7610474,7.5864868,1.5326538,4.2454224,1.074585,9.1047974.7940674,13.5211182-.5864868,9.2318726-2.0393677,19.0128174-6.4760742,27.2615356-3.8950195,7.2416992-10.9395142,13.526062-19.5251465,13.8277588-8.8131714.3097534-16.0900269-5.993042-20.2296143-13.2582397-4.4290161-7.7731934-7.0985107-17.4713135-6.3128662-26.4366455.6882324-7.8530884,4.8238525-15.6055908,12.046936-19.2480469,1.619751-.8168335,3.352478-1.3375854,5.1416016-1.6186523,1.2678223-.1992188.7294922-2.126709-.5316772-1.9285889-7.3778687,1.1591187-13.3824463,6.7808838-16.3378906,13.4668579-3.6745605,8.3127441-2.7705688,17.8596802-.1412354,26.3337402,2.5198975,8.1212769,6.6862183,16.1863403,13.9696045,20.9831543,3.380127,2.2261353,7.3473511,3.6364746,11.4143677,3.713501,4.0422974.0764771,8.0358887-1.1756592,11.4914551-3.2313843,7.4420776-4.4272461,11.8530884-12.2158813,14.276062-20.3129272,1.3411865-4.4819946,2.1547241-9.1162109,2.6968384-13.7578125.5601807-4.7957764,1.0197754-9.7895508.6599731-14.6173706-.2873535-3.8546143-1.4571533-7.4585571-4.1286011-10.3187256-2.2203979-2.3772583-5.0742188-4.0671997-7.843811-5.7185059-2.8335571-1.6894531-5.7839355-3.3721924-7.980957-5.8852539-2.2816162-2.6099243-3.1829224-6.0108032-2.4274902-9.4031982.772644-3.4699707,2.9570312-6.6522217,5.9537964-8.5775146,3.3446655-2.1488647,7.5733643-2.5934448,11.4175415-1.8184814,8.6401367,1.7418823,14.5664673,8.6394043,18.0895996,16.3377686.9031372,1.9734497,1.6506958,4.0115967,2.3156128,6.076416.3929443,1.2202148,2.324646.6984253,1.9285278-.5316772Z"/>
        <path class="cls-1" d="M182.8376906,147.6419821c-2.0474319-4.718158-6.2012173-10.1918182-13.2667357-11.1757844-4.4639615-.6216439-8.7255889.8189552-12.5227131,2.4430273-1.2631425.5402534-2.5187186,1.0913938-3.7708595,1.6473874,5.0486563-3.1586212,9.7961813-6.5785644,13.6147-10.6187741,1.4797831-1.5657018,2.7990642-3.2186311,3.902705-4.9524919,1.1979155-1.8819837,2.3210808-3.9449481,2.1938012-6.0727101-.2095961-3.5029733-4.1740058-6.0490013-8.6082673-6.4948128-4.7231736-.4748327-9.2428825,1.588722-12.0919106,4.2981213-3.5104733,3.3384543-4.8010111,7.6347064-5.7784159,11.738894-1.250358,5.2505413-1.8296172,10.5671918-1.905237,15.8921388-.3548783.2039682-.7084521.4092153-1.0636348.6128883-.7076694.4057393-.0910134,1.294411.7191494.9278257.1117991-.0505985.2242069-.1004101.336006-.1509758.0073924,3.5680988.2335996,7.1376733.6326149,10.6914747.3607922,3.2137123.8636054,6.4152586,1.4571276,9.6075903-.4929421-.0851616-.9879281-.1638632-1.4795222-.2530911-3.5796139-.6496813-8.0854512-2.044404-11.4826035-.2838831-.7509801.389212-.0391797,1.3208744.7191928.9278585,1.6501125-.8551579,3.6352308-.7826869,5.5224652-.5052312,2.0833067.3062802,4.1266945.7753415,6.1953903,1.1340566.2443838.0423677.4903765.0787999.7350647.120151,1.1158599,5.7739066,2.5393304,11.5159062,4.0647723,17.2339019.306219,1.1478621.6168299,2.2950684.9296586,3.441914.1845924.6768661,1.5584033.3903925,1.3739849-.2856538-1.8236598-6.6862543-3.5655249-13.3937581-4.8881979-20.1482204,3.6777153.588786,7.3849133,1.0688982,11.1142449,1.4315156,3.9582784.3848834,8.0422709.6622736,11.9739802-.0189867,3.6145756-.6263004,6.7322955-2.1623579,8.991802-4.3732157,4.9259861-4.8199782,4.7916619-11.2606181,2.3814375-16.8149145ZM146.7478558,134.7419451c.5972184-4.2079096,1.3955098-8.5742718,3.2733949-12.580771,1.6285441-3.474444,4.6659478-6.8960267,9.432867-8.2270667,4.0732953-1.1373358,9.2145739-.2270212,11.3539759,2.8233526,1.2823192,1.8283354.741544,3.9643939-.1706338,5.8127655-.8724763,1.7678664-2.0767405,3.4580478-3.4031097,5.0540169-5.2349881,6.2991738-12.9976526,11.1355482-20.7222681,15.6236354-.1526312.0886704-.3064799.1761275-.459285.264634.0697494-2.928452.2812153-5.8546085.6950588-8.7705665ZM179.8063313,163.3178228c-2.0571289,2.2470933-5.0477431,3.8148282-8.5723925,4.4494578-3.838826.6911636-7.8751594.3838996-11.743468.0072799-3.8012553-.3700613-7.5805073-.8713901-11.3262327-1.4859509-.3181338-1.6874597-.6175257-3.3769852-.8751723-5.0709378-.8133371-5.3474425-1.2930164-10.7365969-1.2670996-16.1216194,3.2126469-1.4506008,6.4273375-2.8985126,9.6499859-4.3363899,3.3928038-1.5138571,7.0448197-3.2111217,11.0915459-3.3648193,7.129267-.2707989,11.8452221,4.7471792,14.0987278,9.2467437,2.693527,5.3780706,3.4804254,11.7211533-1.0558946,16.6762358Z"/>
        <path d="M217.6884877,125.8147566c1.5167002,8.9954514,3.0394661,18.0031592,3.8265342,27.0979962.1909362,2.2063318.3594348,4.4205852.4305337,6.6344259.0577075,1.7968644.0012654,3.7257904-1.0243951,5.2762835-1.1071984,1.6737541-3.0988245,2.4947538-4.9289556,3.1096212-2.0217743.6792536-4.0984007,1.2169083-6.1658125,1.7371195-4.981714,1.2535206-10.0376951,2.2085116-15.1316016,2.8710119l.964279.7341604c-5.5085368-18.8014111-9.2265168-38.1016655-10.978377-57.6173187-.1141548-1.2716799-2.1152327-1.2836876-2,0,1.7678196,19.6934393,5.4908198,39.1753518,11.049819,58.1489979.1104095.376843.5325251.7903132.964279.7341604,4.7984989-.6240804,9.5624846-1.4712884,14.2688378-2.5998491,2.3362524-.560222,4.6734895-1.1610816,6.9648015-1.8857922,1.8015188-.5697957,3.637939-1.2590105,5.1236448-2.4578254,3.3784765-2.7260902,2.9842087-7.1501537,2.7374769-11.0390208-.3044892-4.7992118-.8437848-9.5795464-1.496341-14.3429453-.7756561-5.6619785-1.7261052-11.2979604-2.6761651-16.9327046-.2135274-1.2664172-2.1411771-.7293508-1.9285581.5316792h0Z"/>
        <path d="M272.0595736,124.3230386c-3.1094321,15.1834601-4.5126553,30.6827317-4.1107616,46.1776309.0142138.5480075.4468239.989623,1,1,16.904228.3171042,33.8162279-.0213303,50.6941185-1.0167875,1.2791844-.0754462,1.2878385-2.0759567,0-2-16.8778906.9954572-33.7898905,1.3338917-50.6941185,1.0167875l1,1c-.3973414-15.3193852.9649368-30.6336385,4.0393196-45.6459517.2572914-1.2563625-1.6701034-1.793722-1.9285581-.5316792h0Z"/>
        <path d="M366.7102761,117.6762093c-3.4455725,3.6628193-8.6318114,5.3878034-13.5541774,5.7089094-2.5720648.1677863-5.165823-.0308742-7.6587628-.6999335-3.0117635-.8083022-5.6761976-2.4421218-8.5174159-3.673769-4.488662-1.9458019-11.1554591-3.0644225-14.4388435,1.5980007-1.4358324,2.0388896-1.7151024,4.6599324-1.7049316,7.0859539.0126758,3.0235479.6020767,6.0573291,1.7052782,8.8712615,1.9122514,4.8775734,5.27794,10.3803737,11.2598955,9.9388735,3.1201501-.2302837,5.9009161-1.7652324,8.6158409-3.1883719,2.7166364-1.4240367,5.5232561-2.6802235,8.4655749-3.5622876,5.6398078-1.6907318,12.0250423-2.017766,17.2796227,1.0290306,1.9326433,1.1206168,3.9452607,2.8779067,4.2639577,5.2257784.403541,2.9729253-1.8514874,5.6909994-3.9022108,7.5601779-4.8694509,4.4383717-11.6084491,6.5439219-17.848137,8.1914203-6.9919573,1.8461241-14.1638659,3.1626887-20.8584414,5.9795228-.9280132.3904743-.9735324,2.0809536.2658396,1.964279,8.7049975-.8194888,17.4099951-1.6389776,26.1149926-2.4584664,4.1622235-.3918319,8.3251818-.8565263,12.4965252-1.1394013,3.9398111-.2671739,7.9296554-.2627427,11.7189171.9792291,1.2259128.4018063,1.7512629-1.5288262.5316792-1.9285581-3.7298467-1.2224979-7.6902273-1.3238001-11.5769029-1.0938957-4.2310639.2502757-8.4536049.7386038-12.6727902,1.1357981-8.870807.8350981-17.741614,1.6701962-26.612421,2.5052943l.2658396,1.964279c11.4608151-4.8222947,24.6112883-5.1476824,35.4163962-11.6214583,4.1848714-2.5073253,9.5475937-7.0841883,8.5892718-12.5698999-.8364237-4.7879307-6.2022513-7.4930411-10.4725362-8.4706831-5.9154075-1.3542774-12.1145683.0051519-17.6177808,2.2921605-2.8638502,1.1901503-5.5090616,2.8060652-8.3440421,4.0455226-2.926353,1.2794055-6.3431881,1.8777686-8.9970478-.3191459-2.2931085-1.8982779-3.7939279-5.0613197-4.7578795-7.8106701-1.0147671-2.8942848-1.4752163-5.9447163-1.2880374-9.0091038.1669771-2.7336554,1.1625439-5.4518253,3.9586366-6.4347112,2.6854988-.9440098,5.7530213-.3435133,8.3362595.6431703,3.2153516,1.2281231,6.1220584,3.1468715,9.4497024,4.1036745,2.7533323.7916702,5.6795292,1.0531339,8.5339512.8669288,5.4399884-.3548716,11.1560961-2.242032,14.968391-6.2946959.8814576-.9370344-.5300815-2.3540911-1.4142136-1.4142136h0Z"/>
        <path d="M370.9092209,171.4021313c1.5849904,2.6062743,5.5382612,3.2198687,8.1858119,2.0572595,3.8922535-1.7091909,3.2300991-6.2013976,2.9672632-9.6499941-.3919444-5.1425939-.7838889-10.2851879-1.1758333-15.4277818-.200544-2.631282-.4123019-5.2619839-.6004203-7.8941832-.1747624-2.4453186-.3169845-4.9500277.171504-7.3695449.8129187-4.0264423,3.5062734-7.4299201,7.4027253-8.87104,3.7197138-1.3757525,7.9860636-.9250326,11.5936953.5854137,3.7704628,1.5786206,6.7503679,4.4948118,8.1568573,8.3668429,1.2595032,3.4673817,1.5100294,7.7231562.4981809,11.2895693-1.4783971,5.2108341-6.6165275,6.2962854-11.4213731,6.376612-5.5899244.0934514-11.1589077-.7632766-16.4637477-2.5235703-1.1373677-.3774103-1.6486797,1.212391-.7705588,1.8277497,11.7480085,8.2326244,24.0494669,16.1592171,38.5357253,18.2542534,1.2589634.1820742,1.8026357-1.7447494.5316792-1.9285581-14.3310116-2.0725841-26.4375302-9.9094109-38.0579662-18.0526367l-.7705588,1.8277497c4.8009382,1.593085,9.8388098,2.456739,14.895702,2.5847263,4.2937874.1086735,9.3752822-.0604602,12.7104487-3.1571838,2.8019072-2.6015888,3.4080437-6.6362753,3.3685685-10.2781402-.0453216-4.1812434-1.1896746-8.3093395-3.8382704-11.6008774-4.8460112-6.0223721-14.6734495-8.3513093-21.5318775-4.5854533-3.4487596,1.8936601-5.8933194,5.2952405-6.7218363,9.1247268-1.0867347,5.022994-.1120726,10.4656705.2735924,15.5258737.4718763,6.1913574,1.0043546,12.381488,1.4150751,18.5771645.140361,2.1173317.0095546,4.5653522-2.3767904,5.3260342-1.6610605.5294871-4.2671429.2227848-5.2506549-1.3944502-.6678475-1.098173-2.3981576-.094274-1.7269414,1.0094383h0Z"/>
        <g>
          <path d="M241.6542957,131.2615771c1.3701028,13.1515832,1.8229955,26.3831456,1.3496889,39.5975133-.0461058,1.2872392,1.9539603,1.2853938,2,0,.4733066-13.2143678.0204139-26.4459303-1.3496889-39.5975133-.1320321-1.2673733-2.1334446-1.2809317-2,0h0Z"/>
          <path d="M258.8611511,128.7284997c-11.9694645.3202243-23.9364108.7282097-35.8998884,1.2240236-1.2824039.0531479-1.2891283,2.0534266,0,2,11.9634776-.4958139,23.9304239-.9037993,35.8998884-1.2240236,1.2845018-.0343648,1.2896019-2.0345013,0-2h0Z"/>
        </g>
        <g>
          <path d="M296.9811441,32.1255981c-6.4847612.6928281-11.9336143,4.4136074-16.2263523,9.1577054-4.608854,5.093452-8.4046807,11.2902662-10.7862456,17.7315198-2.3440683,6.3398391-2.9711348,13.3699084-.3520458,19.7243135,2.3145227,5.6154696,6.959849,10.2064176,13.0917376,11.2667644,8.2451748,1.4257833,16.2165527-2.9992144,23.0277615-7.0918515,1.1020514-.6621874.0976725-2.3921688-1.0094383-1.7269414-5.6753994,3.4101656-12.0334644,7.0921006-18.8567871,7.096019-6.1390661.0035254-11.1453888-3.6266838-13.8317417-9.0149729-5.8021615-11.637981,1.0684493-25.446242,8.4892451-34.6479221,4.1495743-5.1454125,9.6483144-9.7675329,16.4538665-10.4946342,1.2665236-.1353147,1.2803668-2.1367937,0-2h0Z"/>
          <path d="M250.0739922,40.7863653c-.3339233-5.6156616-.6928711-11.2297974-1.074707-16.8424072-.0869141-1.2772217-2.0875854-1.2868652-2,0,1.3588867,19.9743042,2.414917,39.9689331,3.1600342,59.9755859.2093506,5.6216431.3936768,11.2442017.5550537,16.8674927.0368652,1.2842407,2.0369873,1.2895508,2,0-.5743408-20.0122681-1.4520874-40.0155029-2.6403809-60.0006714Z"/>
          <path d="M164.5749309,86.9438873c-2.3356464-16.8276043.6321498-34.2572171,8.3498674-49.3844466h-1.7269414c6.3904483,13.1540879,8.9649975,27.6812682,11.4796562,41.9665965.1983756,1.1269363,1.9695472.8385777,1.964279-.2658396-.0560629-11.7530599,1.3851427-23.5008697,4.3955038-34.8664918,1.1316171-4.2724219,2.6268518-8.8249059,5.8762368-11.9839908,1.581887-1.5379264,4.2274073-3.4300256,6.4843184-2.2455178,1.8091619.949513,2.6633787,3.2727599,3.224304,5.1017032,3.1052771,10.1250127,4.2298853,20.7570621,6.6569527,31.0452377,1.1961765,5.0705117,2.69677,10.0695187,4.7837045,14.8494996,1.8596714,4.2594504,4.2304425,8.487978,7.7366806,11.6175134,3.4459113,3.07569,7.7795109,4.7581094,12.4007777,3.9341043,4.0580203-.7235742,7.8106795-3.4265072,8.8193407-7.5612985.3049604-1.2501202-1.6231827-1.7835005-1.9285581-.5316792-.9456835,3.8766278-4.7831845,6.045669-8.5700659,6.299214-4.5190764.3025679-8.424912-2.2601039-11.2792723-5.5691386-3.2234203-3.7368827-5.3104032-8.4369478-6.9708984-13.0370776-1.8427893-5.1051457-3.1094502-10.3960929-4.1932089-15.7076345-1.0636778-5.2131243-1.9519002-10.4604358-3.0341943-15.6698767-.5399735-2.5990721-1.1271895-5.1892787-1.8092748-7.7550327-.5563801-2.0928975-1.1099598-4.2650356-2.2575267-6.1280854-1.0014858-1.6258902-2.478983-2.9639345-4.431778-3.2147288-2.3173548-.2976141-4.5405262,1.0236386-6.2565568,2.4488372-3.3157496,2.753798-5.1523344,6.9043021-6.4180582,10.9250115-3.8281764,12.160619-5.2890501,25.3403499-5.2284269,38.0494313l1.964279-.2658396c-2.5481707-14.475704-5.2068702-29.1174561-11.6812729-42.4443556-.3219425-.6626859-1.3990503-.6426879-1.7269414,0-7.9857213,15.6525343-10.9663704,33.5270609-8.5514841,50.9255641.1761838,1.2693495,2.103553.7291048,1.9285581-.5316792h0Z"/>
        </g>
      </g>
    </g>
  </g>
</svg>