<?xml version="1.0" encoding="UTF-8"?>
<svg xmlns="http://www.w3.org/2000/svg" version="1.1" viewBox="0 0 612 612">
  <defs>
    <style>
      .cls-1 {
        fill: #ed1c24;
      }
    </style>
  </defs>
  <!-- Generator: Adobe Illustrator 28.7.1, SVG Export Plug-In . SVG Version: 1.2.0 Build 142)  -->
  <g>
    <g id="Layer_1">
      <path class="cls-1" d="M134.1635189,353.2111215c-.3649323,13.1152787-2.9517516,25.665152-11.7644904,36.9807909-9.0429935,11.6113064-22.5854758,18.2976085-38.6116319,22.1947654-.8336619.2027408-1.80139.4358494-2.5872866.2774541-.8257991-.1664246-2.0720952-.7497302-2.1209163-1.2181573-.0738864-.7088285.4922086-1.868368,1.2058455-2.1435754,2.0212839-.7794719,4.2254609-1.300145,6.4131161-1.7512428,3.1578119-.6511682,3.8458702-2.0164871,2.7879301-4.4376271-3.3524386-7.6722532-6.5674364-15.3831614-9.7812515-23.093554-8.2576853-19.8113596-16.4823214-39.6314668-24.7278318-59.4460492-4.162763-10.0034315-8.3761412-19.9935943-12.4852432-30.0110126-.8169469-1.991598-2.4395484-1.7002307-4.1945778-1.2470243-2.6291664.678921-5.1799223,1.6128288-7.8626416,2.0684292-1.1060819.1878423-2.4678933-.5834437-3.7133919-.9184936.7384441-.9066154,1.2403803-2.3429829,2.2547979-2.6314497,5.4425541-1.5476917,10.9882479-2.8772008,16.543629-4.1567568,13.9181474-3.2057223,28.0669965-3.8938237,42.152216-1.1803034,13.4834448,2.5975828,22.8546061,9.7711239,29.9252695,18.994706,8.0303209,10.4754313,11.4381051,22.2196269,14.084285,34.0963434,1.2940615,5.8080104,1.6833726,11.7444534,2.4821739,17.6227574ZM119.8829573,364.4264857c.2619713-14.0918192-3.3893818-27.6387116-8.1919848-40.9881118-4.3707877-12.1491062-11.0989592-23.2822066-24.0234047-31.3227689-7.2926859-4.5369349-15.5294537-6.9248526-24.7904604-7.0196577-2.6688195-.02732-3.5830624.7858162-2.7446067,2.9969227,1.8191521,4.7973267,3.3634166,9.6605916,5.0718949,14.4852015,6.9448811,19.6117588,13.8998575,39.2212616,20.87,58.8273022,4.426439,12.450943,8.8790393,24.8959746,13.3358797,37.3400301,1.1327552,3.1628224,1.9580986,3.4832225,4.8543489,1.0895959,3.1065218-2.5673807,6.1681684-5.3363789,8.3404095-8.4246169,5.8829317-8.3637155,7.7766566-17.5374548,7.2779236-26.983897Z"/>
      <path class="cls-1" d="M371.3611399,214.1165509c1.4768738,4.2005453,2.6839308,7.686102,3.9279078,11.1632426,8.9470589,25.0084774,17.9023094,50.0150856,26.8529679,75.0227434q1.3045722,3.6448682,5.9771357,2.4615261c7.3220893-1.8455875,14.6232264-3.7495534,21.9976961-5.450889,1.0539769-.2431545,2.4686634.5095223,3.7163325.8013132-.8436246.8142227-1.4915264,2.0685858-2.5623944,2.3719327-7.4709235,2.1163106-15.0054419,4.0969143-22.5720346,5.987363-2.9450713.7357986-4.0593665,1.7786641-3.0343719,4.3632821,2.2028847,5.5547364,4.1344528,11.1811659,6.0132251,16.8130465.7242803,2.1712176,2.0042084,2.7230505,4.6307053,1.9468566,2.5815467-.7628976,5.2609778-1.3599967,7.9560076-1.8032493.722342-.1188379,1.6582669.5895118,2.4961689.9181253-.5066363.6030659-.8454706,1.514672-1.5477835,1.757983-3.9188393,1.3575474-7.8914897,2.6290004-11.9101057,3.7876007-6.8670489,1.9797658-13.7815632,3.8545425-20.6767636,5.7719521-.4755311.1322078-1.0079653.4248367-1.4248856.3453536-1.1892661-.2266815-2.3325666-.6070805-3.493958-.9270018.6222193-.7771515,1.0239101-1.9359175,1.9073162-2.2611794,2.8465408-1.0479943,5.8184946-1.9398585,8.8414673-2.6037338,2.7867763-.6119976,3.2622151-1.6932695,2.3523651-3.7654832-8.0334245-18.2958958-16.0350515-36.6008798-23.9563543-54.9278801-7.7545392-17.9412329-15.4100402-35.9097582-23.0949157-53.8701483-1.6292615-3.8077477-1.5957335-3.8019927-6.304294-2.5814413-1.7937176.4649603-3.5958576,1.0708577-5.4382405,1.1946172-1.1237098.0754914-2.3313898-.6454225-3.5013651-1.0086211.8024125-.7670596,1.4200399-1.9386477,2.4376274-2.2346973,6.0307852-1.7545484,12.1532015-3.3087916,18.2468433-4.9253956,15.6496979-4.1517753,31.3024878-8.2961199,46.9496243-12.4540047,4.9118981-1.3052232,5.5515391-1.1117456,7.0145447,2.7626447,1.4522988,3.8461725,2.8874298,7.7048218,4.0073092,11.6168541.2879307,1.0058081-.6392256,2.2331826-1.008196,3.3587723-1.2182715-.7798448-2.9662081-1.3635234-3.5551762-2.3764308-1.7441985-2.9998969-3.1146731-6.1462325-4.464011-9.281187-.7561239-1.7567629-1.8035476-2.4100904-4.1900176-1.7557132-9.766247,2.6779177-19.5912431,5.2196082-29.3495753,7.9152696-1.2796281.3534888-2.2987155,1.3077876-3.2408014,1.866577Z"/>
      <path class="cls-1" d="M196.674775,309.7210423c.7512551-.9202892,1.3329315-1.539515,1.7936599-2.2115669,4.9409035-7.2071686,16.5739583-10.3491074,25.9859798-7.0022639,5.3121583,1.8889846,8.739614,5.3313974,10.2060347,9.5649302,2.4386427,7.0402744,4.3153844,14.2192758,5.9917883,21.4047964.5683852,2.4362595,1.6692045,2.8380578,4.2324988,2.1967237,1.681642-.4207483,3.3710833-.9982345,5.0908683-1.0867782,1.2713672-.0654686,2.5973069.5442086,3.8989486.8530987-.8013049.9506294-1.3552451,2.4413975-2.4461421,2.759606-5.0755926,1.4805473-10.2964659,2.6452248-15.4719737,3.9055914-3.1291412.7620136-6.2287232,1.6710967-9.4273434,2.1462457-1.2242017.1818387-2.6873228-.6609471-4.0415756-1.0368343.9347481-.8981256,1.6735426-2.3389866,2.8360416-2.6063488,7.5979518-1.7474123,7.2152748-1.1546225,5.2044208-7.6778517-1.8607737-6.0362941-4.1974708-11.9843943-6.535114-17.9184985-.6664773-1.6918883-1.8672578-3.3141092-3.1745298-4.7668024-2.3960231-2.6625081-5.2381565-5.2695844-9.8621239-4.5420638-5.0086749.7880537-7.8387632,3.6766264-9.3173445,7.5158745-2.2505348,5.8437373-.0011538,11.321532,1.9513319,16.8354403.2047566.5782228.520539,1.1322655.7090046,1.7131771,1.6062788,4.9509707,1.5829383,4.8700143,7.6099162,4.0234349,1.1789746-.1655959,2.5584485.5778913,3.8454375.9020666-.8285797.8176113-1.4580214,2.0777937-2.5177902,2.3814905-7.2236164,2.0700775-14.5474017,3.9162542-21.8182759,5.8831105-3.1957128.8645166-4.3145076,3.9611891-1.9316488,5.8477704.6392833.5061245,2.4442269.0026151,3.6949765.1075121,1.445434.1212135,2.8697658.4025903,4.3032585.6144285-.9045659.8081086-1.6248081,1.8944817-2.7501447,2.3693176-2.7716622,1.1694473-5.7338321,2.0499857-8.6108666,3.0621242-1.9737493.6943904-3.7199207.9320662-5.4916016-.5574497-.5055402-.4250393-2.4179213-.3454089-3.1860443.0786544-5.9963572,3.3106101-12.7506728,4.8504751-19.8563525,5.2366936-3.3036002.1795551-6.8460967-.1473273-9.9956593-.9531708-5.8014075-1.4843409-7.6952132-7.8658045-3.0654309-11.380868,3.3616917-2.5523165,7.6954324-4.5259314,12.0070787-5.9815067,4.8180172-1.6265302,10.0683227-2.4849695,15.1961227-3.457256,2.2068421-.4184279,3.2720336-1.0405911,2.3108645-2.8293655-1.2814049-2.3846949-2.2689371-4.9590369-4.1043514-7.0481011-5.218012-5.9391133-13.5136039-6.8203699-20.7875124-2.4543991-2.4658829,1.4800869-4.0937368,3.3135935-2.9493748,5.9641037,1.0733369,2.4860561,3.5235288,2.7375069,6.3885873,2.7442472,1.1727097.002744,2.342212.8817723,3.5131796,1.3621514-1.0822093.6921805-2.0533121,1.804962-3.2645226,2.008734-8.2397041,1.3862762-14.4924138-2.0472233-14.1842693-7.5907628.1827084-3.2870009,2.7138014-5.425604,5.8791705-6.9597047,13.7856128-6.6812193,31.0553191-6.1370659,38.848013,9.1731869.8992586,1.7667674,1.8684116,3.5291518,2.4944037,5.3611851.6464597,1.8919772,1.7770228,2.3900171,4.0978788,1.7362338,10.8399992-3.0536529,9.8820607-1.3411572,5.1450832-9.2880285-3.3501657-5.6203339-6.9051458-11.1633761-10.2075231-16.8010762-1.0960313-1.8711119-2.4826008-2.2670725-4.7954959-1.5879489-2.5958186.7621794-5.2344068,1.47633-7.9251216,1.9615341-.8383866.1511946-1.906647-.5096235-2.8696735-.7987534.5001406-.8286608.7584545-2.1719911,1.5382881-2.405376,6.8300711-2.0441018,13.7253523-3.9610141,20.684713-5.7034264.85327-.2136246,2.5206054.6161688,3.2322867,1.329813.8912169.8936782,1.1844896,2.1671846,1.8979708,3.6029259ZM160.6085196,356.1281283c4.3899977-1.2636262,8.3143404-2.0416249,11.8149672-3.4775688,6.3350646-2.5986141,7.0518225-4.4171855,4.4041542-9.6238611-.391134-.769159-1.9566507-1.7230664-2.8838416-1.6626806-6.511139.4240448-12.4458281,2.1450302-17.3514382,5.7384535-2.0916052,1.5320934-3.6597986,3.5846757-2.0240414,5.5546811,1.2647562,1.5231617,3.9201085,2.3109023,6.0401998,3.4709759Z"/>
      <path class="cls-1" d="M555.4441121,213.4148771c1.2784051-1.6803737,1.9990396-2.7138701,2.820789-3.693348,4.3270373-5.1578643,10.3638452-7.8284109,18.1725415-7.6113932,5.6311481.1564984,9.2367202,3.4238818,8.8067394,7.6847116-.3592789,3.5605601-5.8714519,7.1432009-10.4945885,6.6302441-1.007873-.1118214-1.8773416-1.0181007-2.8105437-1.5584972.8086889-.5906536,1.5907031-1.206896,2.431974-1.7663899,1.52337-1.0131238,3.779189-1.7797598,4.3910937-3.057488.4381956-.9150913-1.0181644-3.3533304-2.1380899-3.5921388-2.0279757-.4324425-4.9896149-.330027-6.583687.6077159-5.2873757,3.110443-7.1003378,7.9107255-8.0181719,12.8699649-1.596518,8.6267085,1.5536445,16.7317034,4.5810016,24.8355059.8260875,2.2112723,1.748352,4.4059149,2.4041917,6.6495808.597229,2.0432363,1.8952479,2.7079954,4.3344675,1.9076583,1.0470544-.3435581,2.0822021-.9319741,3.1461475-.967968,1.5219394-.0514817,3.0653848.3017355,4.5996462.4821378-.909527.9389629-1.5753351,2.2927535-2.7731621,2.7410244-3.9809113,1.4898197-8.15593,2.6483831-12.2509706,3.945112-3.1612386,1.0010245-6.2518213,2.1919079-9.5035142,2.9385166-1.1953348.2744615-2.7628706-.4836019-4.1606661-.7706967.7985359-.8576014,1.3645674-2.0935117,2.4330817-2.5117463,7.2224511-2.8269162,7.3400878-2.7945686,4.607861-8.9306217-4.9746161-11.1719671-10.1359558-22.2913845-15.031609-33.4850318-.9661532-2.209159-2.2597879-2.537151-4.7286359-1.7690602-1.8680655.5811786-3.8234008,1.1293834-5.7923044,1.2943716-.9278948.0777474-1.9787797-.7789148-2.9739152-1.2121768.5739232-.6805232.9677223-1.7466066,1.7507518-1.9796829,5.543232-1.6500289,11.1551816-3.1556863,16.7693926-4.6495805,2.1520734-.5726474,3.6563835-.0776047,4.2335833,1.8612502.2482416.8337206.8908823,1.5926357,1.7765959,3.1080259Z"/>
      <path class="cls-1" d="M492.9996929,266.1496015c.8344869-13.0958315,1.6411452-25.7547454,2.489431-39.0675531-2.3162295.4418346-4.0310303.9556661-5.7767518,1.0348868-1.1236175.0509891-2.2926929-.5366443-3.4414161-.8380483.6365028-.8564688,1.0310865-2.1969999,1.9495205-2.4894216,5.2534091-1.6726621,10.599257-3.1777255,15.9962393-4.5299691.9889052-.2477769,2.3574877.4697991,3.5508381.7417837-.7422789.895041-1.314956,2.4172404-2.2555421,2.5793143-4.7192674.813173-5.4352407,3.2823003-5.6434702,6.6284946-.9810136,15.7623082-2.1939778,31.5158137-3.4508307,47.2660226-.0963615,1.2071354-1.1752134,2.3643269-1.7973634,3.5447316-1.2082107-.7413878-2.7983139-1.2889481-3.5670368-2.2534539-10.4693444-13.1354717-20.9088296-26.2874533-31.1372703-39.5427297-2.0192072-2.616763-3.7404229-4.0822921-7.694844-2.3442904-.8841444.3885942-2.570286-.3850767-3.8872265-.6236549.6673311-.9295248,1.0599303-2.3636547,2.0469434-2.7059421,6.0013184-2.0811915,12.1005673-3.9974868,18.2649341-5.7497885,1.0711448-.3044979,2.6079445.4342288,3.9296385.6911124-.7650771.8819795-1.6421144,1.7169938-2.2626492,2.6595708-.5823225.8845715-1.6181624,2.2011895-1.2163332,2.783915,7.2802772,10.5580819,14.7467703,21.0344248,22.1908344,31.5203624.1001458.1410291.423243.1812126,1.7123549.6946574Z"/>
      <path class="cls-1" d="M288.9375164,298.6880047c.6714384-2.4716548,1.0953967-5.7196601,2.4477574-8.6992718,4.3307986-9.5419287,17.205673-12.3898667,26.8450763-5.7618601,3.4084649,2.343655,6.0218321,5.6052052,8.2949804,8.7694733,2.3980306,3.3380591,1.4276547,4.4422127-3.0822296,5.7420722-6.739536,1.9425104-13.4027167,4.0534436-20.1335072,6.0159353-2.1837094.6367025-3.0177578,1.7380846-2.4428886,3.4737843,1.8944403,5.7199271,3.7149711,11.4497067,8.7692654,16.1022844,4.9412034,4.5485278,9.9406484,4.5942913,14.8534233-.0191894.2442958-.229407.4027984-.5580206.7048973-.7002098,1.3697131-.6447227,2.7766695-1.2390594,4.1702192-1.8515174-.0901774,1.4847829.4548789,3.2646072-.3767005,4.4050494-4.4168686,6.0573435-15.9874707,7.3543025-23.693783,2.7786481-9.0007315-5.3442609-13.4368908-12.8320603-15.2829888-21.4239674-.5722848-2.6634105-.6712077-5.3916082-1.0735215-8.831231ZM298.4848271,294.8602666c.1210057.0298154.2420113.0596307.3629939.0894369.0684637,1.1024594.0931771,2.2079666.2136752,3.3067888.3361346,3.0646472,1.1277249,3.4535637,4.762487,2.3265559,2.8126896-.8721224,5.6871974-1.6581043,8.362175-2.7506375.9680223-.395362,2.2654182-1.8657897,1.9990165-2.3413715-1.814139-3.2387789-3.528063-6.6399953-6.2226775-9.3988002-2.2482042-2.3017312-5.7981193-1.5340915-7.1219592,1.2551549-1.1379933,2.3976505-1.5966565,5.000666-2.3557109,7.5128727Z"/>
      <path class="cls-1" d="M445.6964432,248.5434277c9.3276822.1082487,14.3202046,5.0856002,18.5038996,10.7637692,3.2725066,4.4415405,2.7463488,5.4554838-3.1072891,7.2674438-6.2119015,1.9228514-12.4477548,3.8013205-18.7244511,5.5840269-3.1226109.8868827-4.1672655,2.3456992-2.8839685,4.8222619,2.3443349,4.5242003,4.2142925,9.2497326,7.1041683,13.5384763,4.2109236,6.2492649,12.1733922,6.9940965,17.4972726.38655.6515939-.8087532,2.3256903-1.0928187,3.525917-1.6200386.1298204,1.1848061.7946593,2.5407237.3000682,3.5258369-2.6290813,5.2363068-13.1817267,8.0357465-20.1804419,5.4824539-8.0270789-2.9284707-13.0154477-8.2715991-16.334889-14.4194936-4.0645353-7.5279277-4.9671398-15.5322382-2.7521176-23.6261053,2.0483741-7.4848253,8.2641983-11.6933953,17.0518315-11.7051815ZM436.95676,263.2438376c.094377.0135725.1887541.0271358.2831773.0407084.0475808.8000977.0749017,1.6013649.1463421,2.4000998.2865924,3.2038623.9143728,3.5483411,4.5976156,2.4835515,2.7115978-.7838825,5.498651-1.4552438,8.0691678-2.4714062,1.1205255-.4429579,2.7412723-1.9193616,2.4980611-2.4212321-1.5595056-3.2183556-3.0492784-6.6067454-5.5839826-9.3343169-2.5958532-2.7933348-7.0737554-1.795441-8.361252,1.6518889-.9196339,2.4622443-1.1250482,5.0943846-1.6491292,7.6507066Z"/>
      <path class="cls-1" d="M525.8811617,229.9800178c8.1339626.067614,13.2439832,4.0551977,17.162038,9.02103,5.2180581,6.6133935,4.8095832,7.0961298-4.3463743,9.7939413-5.6654838,1.6693472-11.2706032,3.4710956-16.9565314,5.0935559-2.3991151.6845747-3.2559387,1.8331199-2.3909466,3.680549,2.1963776,4.6908091,3.8204934,9.6546617,6.884909,13.9600626,4.5270982,6.3603773,11.5343512,7.7947743,17.9615431,1.1212528.8081351-.8390842,2.5215976-1.1227629,3.8156015-1.6637948-.0338742,1.2846572.477977,2.7973218-.1907847,3.8167254-4.124669,6.2877726-15.2847887,7.952037-23.3968299,3.449061-8.9833559-4.9866239-13.5599271-12.246287-15.5844877-20.6018074-1.52397-6.2894944-1.7172929-12.5841269,1.2060417-18.7254561,2.7428876-5.7622192,8.4610748-9.0017117,15.8358214-8.9451196ZM516.8860836,244.6602116c.1624024.0219518.3247586.0438943.4871609.0658369,0,.8994884-.0662255,1.80266.0118606,2.6978022.284008,3.253705.7368332,3.5080563,4.4965007,2.4581744,2.8362954-.7920316,5.7513692-1.4827756,8.4103558-2.5646092,1.1580455-.4711895,2.7407185-2.1095243,2.4545876-2.7030416-1.5050946-3.1213682-3.065754-6.362624-5.5320637-9.0142852-2.6050371-2.8007932-6.6872479-2.1096901-8.1933578,1.2046217-1.1343243,2.4961756-1.4532218,5.2283696-2.135044,7.8555007Z"/>
      <path class="cls-1" d="M271.6584417,332.8365296c-8.3085947-.146517-14.4545015-2.0473338-19.8476532-6.0547836-8.9378058-6.6413489-7.747709-18.8619457,2.2409355-25.6108158,5.3704459-3.6285609,11.3385823-6.3827618,18.487424-7.0064627,2.6647784-.2324733,3.7659901-1.2468862,3.7600136-3.3102418-.0029075-.993649-.1537723-2.256824.5125666-2.9119056.7890982-.7757519,2.3583184-1.2804584,3.6496686-1.3742598.4774001-.0346864,1.6418836,1.4503636,1.5988948,2.210066-.1242823,2.195674-.6433791,4.383291-1.1193717,6.5584773-.5415027,2.4745553-3.0600544,2.2597982-5.314235,2.3632496-9.8397641.4516318-17.8388299,6.3201846-19.1804145,14.0693887-.9543157,5.5123798,2.8009214,11.3821019,9.0787944,14.1907127,5.4102504,2.4204586,13.392379,2.1094507,17.8603127-.7831367,1.1537536-.7469494,1.910962-1.9162125,3.1251261-2.5627584,1.2760976-.6794919,2.8818918-.9646071,4.3436283-1.4220583-.157672,1.2900162.2347658,2.8807459-.5691466,3.8174897-3.3083191,3.8548003-7.89802,6.4424018-13.7260676,7.3873038-1.9625579.3181901-3.9947332.362904-4.9004759.4397352Z"/>
    </g>
  </g>
</svg>